<?xml version="1.0" encoding="utf-8"?>
<svg xmlns="http://www.w3.org/2000/svg" viewBox="0 0 500 500">
  <g id="uuid-a688ba91-26f5-4b36-bad0-53f94fa71004" style="" transform="matrix(1, 0, 0.00135, 1, -0.331613, 0)">
    <rect class="uuid-83b83d79-8342-4671-9f0a-02e66d2f69f0" x="2069.9" y="-875.96" width="2500" height="2500" style="stroke: rgb(0, 0, 0); stroke-miterlimit: 10; stroke-width: 1; fill: rgba(255, 255, 255, 0);"/>
    <g transform="matrix(0.172135, 0, 0, 0.163781, 36.794678, 216.440842)" style="">
      <path class="uuid-a7acbfaa-72b0-4dc1-bb03-386403756c4c" d="m1250.5,774.85l14.99,100.81,14.99,100.81-14.99,100.81-9.51,63.98c18.32,2.61,32.4,18.1,32.4,36.83,0,4.86-.95,9.5-2.67,13.76l61.12,23.89,96.32,37.65,81.33,63.17,81.33,63.16-96.32-37.65-96.32-37.65-81.33-63.17-51.62-40.09c-4.27,5.31-9.98,9.44-16.56,11.84,11.5,171.21,21.67,341.58,32.54,512.89h-91.02c11.64-173.37,21.62-337.69,34.4-512.15-7.51-2.22-14.04-6.67-18.79-12.57l-51.62,40.09-81.33,63.17-96.32,37.65-96.32,37.65,81.33-63.17,81.33-63.17,96.32-37.65,61.12-23.89c-1.72-4.26-2.67-8.9-2.67-13.76,0-18.73,14.07-34.23,32.39-36.83l-9.51-63.98-14.99-100.81,14.99-100.81,14.99-100.81h0s0,0,0,0Z" style="fill-rule: evenodd; stroke-width: 0px; fill: rgb(255, 255, 255);"/>
      <g>
        <path class="uuid-a7acbfaa-72b0-4dc1-bb03-386403756c4c" d="m797.97,882.73l-58.16,84.34-58.16,84.34-80.28,64.45-50.95,40.9c11.73,14.08,11.47,34.85-1.39,48.67-3.34,3.59-7.22,6.38-11.42,8.38l28.7,58.17,45.23,91.67,16.65,100.56,16.65,100.56-45.23-91.67-45.23-91.67-16.65-100.56-.16-.96,28.31,446.24h-91.02l34.29-510.51c-.23-.08-.46-.15-.69-.23-9.06-3.53-16.39-10.2-22.01-20.01-2.53-5.61-3.59-11.73-3.14-17.77l-65.61-4.65-103.39-7.33-96.93-36.11-96.93-36.11,103.39,7.33,103.39,7.34,96.93,36.11,61.51,22.92c1.65-4.28,4.14-8.34,7.47-11.92,12.86-13.82,33.89-15.92,49.2-5.69l36.91-53.52,58.16-84.34,80.28-64.45,80.28-64.45h0s0,0,0,0Z" style="fill-rule: evenodd; stroke-width: 0px; fill: rgb(255, 255, 255);"/>
        <path class="uuid-a7acbfaa-72b0-4dc1-bb03-386403756c4c" d="m1703.03,882.73l58.16,84.34,58.16,84.34,80.28,64.45,50.95,40.9c-11.73,14.08-11.47,34.85,1.39,48.67,3.34,3.59,7.22,6.38,11.42,8.38l-28.7,58.17-45.23,91.67-16.65,100.56-16.65,100.56,45.23-91.67,45.23-91.67,16.65-100.56.16-.96-28.31,446.24h91.02l-34.29-510.51c.23-.08.46-.15.69-.23,9.06-3.53,16.39-10.2,22.01-20.01,2.53-5.61,3.59-11.73,3.14-17.77l65.61-4.65,103.39-7.33,96.93-36.11,96.93-36.11-103.39,7.33-103.39,7.34-96.93,36.11-61.51,22.92c-1.65-4.28-4.14-8.34-7.47-11.92-12.86-13.82-33.89-15.92-49.2-5.69l-36.91-53.52-58.16-84.34-80.28-64.45-80.28-64.45h0s0,0,0,0Z" style="fill-rule: evenodd; stroke-width: 0px; fill: rgb(255, 255, 255);"/>
      </g>
    </g>
  </g>
</svg>